<svg xmlns="http://www.w3.org/2000/svg" xmlns:xlink="http://www.w3.org/1999/xlink" width="191" zoomAndPan="magnify" viewBox="0 0 143.25 127.499994" height="170" preserveAspectRatio="xMidYMid meet" version="1.0"><defs><clipPath id="be1009659d"><path d="M 0.570312 0.4375 L 43.6875 0.4375 L 43.6875 126.757812 L 0.570312 126.757812 Z M 0.570312 0.4375 " clip-rule="nonzero"/></clipPath><clipPath id="50148a7764"><path d="M 49.8125 0.4375 L 92.929688 0.4375 L 92.929688 126.757812 L 49.8125 126.757812 Z M 49.8125 0.4375 " clip-rule="nonzero"/></clipPath><clipPath id="c3779ae6b6"><path d="M 98.898438 0.4375 L 142.015625 0.4375 L 142.015625 126.757812 L 98.898438 126.757812 Z M 98.898438 0.4375 " clip-rule="nonzero"/></clipPath></defs><g clip-path="url(#be1009659d)"><path fill="#1a7419" d="M 0.570312 0.4375 L 43.6875 0.4375 L 43.6875 126.757812 L 0.570312 126.757812 Z M 0.570312 0.4375 " fill-opacity="1" fill-rule="nonzero"/></g><g clip-path="url(#50148a7764)"><path fill="#cd5317" d="M 49.8125 0.4375 L 92.929688 0.4375 L 92.929688 126.757812 L 49.8125 126.757812 Z M 49.8125 0.4375 " fill-opacity="1" fill-rule="nonzero"/></g><g clip-path="url(#c3779ae6b6)"><path fill="#6716cf" d="M 98.898438 0.4375 L 142.015625 0.4375 L 142.015625 126.757812 L 98.898438 126.757812 Z M 98.898438 0.4375 " fill-opacity="1" fill-rule="nonzero"/></g></svg>