<svg xmlns="http://www.w3.org/2000/svg" xmlns:xlink="http://www.w3.org/1999/xlink" width="243" zoomAndPan="magnify" viewBox="0 0 182.25 127.499994" height="170" preserveAspectRatio="xMidYMid meet" version="1.0"><defs><g/><clipPath id="f7d9b3e578"><path d="M 21.488281 0.367188 L 64.652344 0.367188 L 64.652344 126.828125 L 21.488281 126.828125 Z M 21.488281 0.367188 " clip-rule="nonzero"/></clipPath><clipPath id="02b96172b2"><path d="M 70.78125 0.367188 L 113.945312 0.367188 L 113.945312 126.828125 L 70.78125 126.828125 Z M 70.78125 0.367188 " clip-rule="nonzero"/></clipPath><clipPath id="b29c5b7823"><path d="M 119.921875 0.367188 L 163.085938 0.367188 L 163.085938 126.828125 L 119.921875 126.828125 Z M 119.921875 0.367188 " clip-rule="nonzero"/></clipPath></defs><g clip-path="url(#f7d9b3e578)"><path fill="#1a7419" d="M 21.488281 0.367188 L 64.652344 0.367188 L 64.652344 126.828125 L 21.488281 126.828125 Z M 21.488281 0.367188 " fill-opacity="1" fill-rule="nonzero"/></g><g clip-path="url(#02b96172b2)"><path fill="#cd5317" d="M 70.78125 0.367188 L 113.945312 0.367188 L 113.945312 126.828125 L 70.78125 126.828125 Z M 70.78125 0.367188 " fill-opacity="1" fill-rule="nonzero"/></g><g clip-path="url(#b29c5b7823)"><path fill="#6716cf" d="M 119.921875 0.367188 L 163.085938 0.367188 L 163.085938 126.828125 L 119.921875 126.828125 Z M 119.921875 0.367188 " fill-opacity="1" fill-rule="nonzero"/></g><g fill="#f4e4e4" fill-opacity="1"><g transform="translate(25.668653, 79.559826)"><g><path d="M 34.375 -33.46875 L 22.5 0 L 12.296875 0 L 0.421875 -33.46875 L 9.109375 -33.46875 L 17.40625 -8.203125 L 25.75 -33.46875 Z M 34.375 -33.46875 "/></g></g></g><g fill="#f4e4e4" fill-opacity="1"><g transform="translate(74.939098, 79.559826)"><g><path d="M 31.9375 -33.46875 L 31.9375 0 L 23.78125 0 L 23.78125 -13.78125 L 11.109375 -13.78125 L 11.109375 0 L 2.953125 0 L 2.953125 -33.46875 L 11.109375 -33.46875 L 11.109375 -20.359375 L 23.78125 -20.359375 L 23.78125 -33.46875 Z M 31.9375 -33.46875 "/></g></g></g><g fill="#f4e4e4" fill-opacity="1"><g transform="translate(126.842978, 79.559826)"><g><path d="M 15.0625 0.328125 C 12.613281 0.328125 10.421875 -0.0664062 8.484375 -0.859375 C 6.546875 -1.648438 4.992188 -2.820312 3.828125 -4.375 C 2.671875 -5.9375 2.0625 -7.816406 2 -10.015625 L 10.671875 -10.015625 C 10.804688 -8.773438 11.238281 -7.828125 11.96875 -7.171875 C 12.695312 -6.523438 13.648438 -6.203125 14.828125 -6.203125 C 16.035156 -6.203125 16.988281 -6.476562 17.6875 -7.03125 C 18.382812 -7.582031 18.734375 -8.351562 18.734375 -9.34375 C 18.734375 -10.164062 18.453125 -10.847656 17.890625 -11.390625 C 17.335938 -11.929688 16.65625 -12.375 15.84375 -12.71875 C 15.039062 -13.070312 13.890625 -13.472656 12.390625 -13.921875 C 10.234375 -14.585938 8.46875 -15.253906 7.09375 -15.921875 C 5.726562 -16.585938 4.550781 -17.570312 3.5625 -18.875 C 2.582031 -20.175781 2.09375 -21.878906 2.09375 -23.984375 C 2.09375 -27.097656 3.21875 -29.535156 5.46875 -31.296875 C 7.726562 -33.054688 10.671875 -33.9375 14.296875 -33.9375 C 17.984375 -33.9375 20.953125 -33.054688 23.203125 -31.296875 C 25.460938 -29.535156 26.675781 -27.082031 26.84375 -23.9375 L 18.015625 -23.9375 C 17.953125 -25.007812 17.554688 -25.851562 16.828125 -26.46875 C 16.097656 -27.09375 15.160156 -27.40625 14.015625 -27.40625 C 13.023438 -27.40625 12.226562 -27.144531 11.625 -26.625 C 11.019531 -26.101562 10.71875 -25.347656 10.71875 -24.359375 C 10.71875 -23.273438 11.226562 -22.429688 12.25 -21.828125 C 13.269531 -21.222656 14.859375 -20.570312 17.015625 -19.875 C 19.179688 -19.144531 20.9375 -18.445312 22.28125 -17.78125 C 23.632812 -17.113281 24.800781 -16.144531 25.78125 -14.875 C 26.769531 -13.601562 27.265625 -11.96875 27.265625 -9.96875 C 27.265625 -8.0625 26.78125 -6.328125 25.8125 -4.765625 C 24.84375 -3.210938 23.4375 -1.972656 21.59375 -1.046875 C 19.75 -0.128906 17.570312 0.328125 15.0625 0.328125 Z M 15.0625 0.328125 "/></g></g></g></svg>